<svg width="644" height="230" viewBox="0 0 644 230" fill="none" xmlns="http://www.w3.org/2000/svg">
<g clip-path="url(#clip0)">
<path fill-rule="evenodd" clip-rule="evenodd" d="M84.4639 204.458C45.4959 180.232 33.1279 128.316 56.8399 88.501C73.8679 59.909 104.875 45.3343 135.432 48.361L154.7 16.009C105.78 -7.61637 46.2973 9.83566 17.5439 58.117C-13.2068 109.748 2.83191 177.072 53.3679 208.488C92.0346 232.529 139.677 228.552 173.704 202.242C147.769 220.156 112.957 222.172 84.4639 204.458Z" fill="#39AA85"/>
<path d="M141.602 111.103V97.9402C141.602 97.9402 129.412 90.9922 118.568 91.6882C100.118 92.3855 95.2055 103.535 95.2055 103.535C95.2055 103.535 90.2962 112.797 94.3829 122.62C95.4309 124.269 97.9989 129.263 105.406 133.643C106.758 134.285 121.267 141.051 127.782 146.147C129.548 148.001 129.898 150.095 129.779 153.329C129.659 156.564 126.412 158.86 123.936 159.809C121.564 160.72 118.338 161.347 112.974 160.461C102.716 158.341 93.3949 150.26 93.3949 150.26V165.397C106.087 172.207 112.424 172.635 117.499 172.635C122.574 172.635 139.971 171.312 144.399 156.348C147.688 141.211 139.595 135.619 138.151 133.596C136.706 131.575 126.884 126.183 115.138 121.077C113.028 119.797 107.05 117.228 107.724 110.391C108.494 106.443 113.79 102.688 121.011 103.747C134.01 104.903 141.602 111.103 141.602 111.103Z" fill="#414F68"/>
<path d="M228.23 171.126L190.599 129.79L219.61 92.865H202.807L173.703 129.142V92.865H157.821V171.126H173.703V133.356L209.09 171.126H228.23Z" fill="#414F68"/>
<path d="M223.028 92.8645H241.152L260.111 118.702L280.11 92.8645H297.192L268.148 132.135L267.818 171.147H252.75L252.727 132.299L223.028 92.8645Z" fill="#38AA87"/>
<path d="M270.115 92.4294H250.984V74.2707H270.115V92.4294Z" fill="#38AA87"/>
<path d="M322.232 159.655V92.8643H306.751V171.147H309.306H322.232H360.11V159.655H322.232Z" fill="#414F68"/>
<path d="M386.687 159.655V92.8643H371.206V171.147H373.762H386.687H424.565V159.655H386.687Z" fill="#414F68"/>
<path d="M482.609 104.656V92.8643H449.881H444.613H434.396V171.147H449.881V137.226H482.609V125.251H449.881V104.656H482.609Z" fill="#414F68"/>
<path d="M496.02 92.8645H511.208V141.223C511.208 141.223 510.987 159.698 533.434 159.466C553.24 157.598 552.419 142.705 552.419 142.705V92.8645H567.978V142.057C567.978 142.057 569.411 172.525 531.998 172.525C494.587 172.525 496.02 141.779 496.02 141.779V92.8645Z" fill="#414F68"/>
<path d="M600.582 159.655V92.8643H585.101V171.147H587.655H600.582H638.459V159.655H600.582Z" fill="#414F68"/>
</g>
<defs>
<clipPath id="clip0">
<rect width="644" height="230" fill="white"/>
</clipPath>
</defs>
</svg>
